<?xml version="1.0" standalone="no"?>
<!DOCTYPE svg PUBLIC "-//W3C//DTD SVG 20010904//EN"
 "http://www.w3.org/TR/2001/REC-SVG-20010904/DTD/svg10.dtd">
<svg version="1.0" xmlns="http://www.w3.org/2000/svg"
 width="512.000000pt" height="512.000000pt" viewBox="0 0 512.000000 512.000000"
 preserveAspectRatio="xMidYMid meet">
<metadata>
Created by potrace 1.14, written by Peter Selinger 2001-2017
</metadata>
<g transform="translate(0.000000,512.000000) scale(0.100000,-0.100000)"
fill="#000000" stroke="none">
<path d="M4450 5083 c-14 -2 -655 -121 -1425 -264 -2815 -522 -2746 -509
-2807 -536 -104 -46 -185 -158 -209 -288 -13 -69 -16 -44 82 -544 l79 -404 0
-1327 c0 -850 4 -1346 10 -1380 30 -156 136 -267 288 -299 75 -16 4279 -16
4354 0 152 32 258 143 288 299 6 34 10 522 10 1359 0 1261 -1 1307 -19 1348
-12 26 -32 49 -53 60 -31 17 -109 18 -1561 23 l-1528 5 1488 269 c818 148
1500 275 1515 282 42 22 71 71 75 128 3 34 -24 209 -82 531 -73 411 -90 489
-115 542 -38 77 -111 144 -187 173 -57 21 -157 33 -203 23z m107 -326 c13 -17
37 -130 87 -415 38 -216 66 -395 63 -399 -8 -8 -859 -165 -864 -159 -5 4 273
893 285 916 6 10 64 26 173 47 205 39 232 40 256 10z m-777 -110 c0 -7 -289
-929 -292 -932 -6 -4 -952 -174 -955 -171 -4 4 283 915 291 923 3 4 217 46
474 94 509 95 482 90 482 86z m-1454 -710 c-79 -252 -145 -459 -147 -461 -7
-5 -934 -173 -938 -170 -3 3 278 912 285 923 5 6 939 177 941 171 2 -3 -62
-211 -141 -463z m-1291 -231 c-79 -252 -146 -460 -149 -463 -9 -9 -437 -86
-443 -80 -3 4 -36 176 -72 384 -66 372 -71 427 -43 455 7 7 842 169 849 164 1
-1 -63 -207 -142 -460z m3780 -2109 l0 -1229 -24 -19 c-23 -19 -71 -19 -2148
-19 l-2124 0 -24 25 -25 24 0 1219 c0 670 3 1222 7 1225 3 4 981 6 2172 5
l2166 -3 0 -1228z"/>
<path d="M2343 2442 c-98 -35 -156 -90 -200 -187 -17 -37 -18 -88 -21 -629 -3
-594 1 -681 33 -749 26 -56 79 -110 136 -142 47 -26 64 -30 134 -30 68 0 89 4
130 26 76 40 874 584 921 628 113 106 124 295 24 412 -26 31 -180 142 -484
348 -245 166 -461 308 -480 316 -59 25 -135 28 -193 7z m587 -632 c173 -117
320 -218 327 -224 9 -8 -90 -80 -398 -289 -226 -153 -417 -281 -425 -284 -12
-4 -14 76 -14 559 0 311 3 567 6 571 4 3 48 -22 98 -57 50 -35 233 -159 406
-276z"/>
</g>
</svg>
